<svg width="40" height="40" viewBox="0 0 40 40" fill="none" xmlns="http://www.w3.org/2000/svg">
<circle opacity="0.2" cx="20" cy="20" r="19.5" stroke="#5E6738" stroke-dasharray="2 2"/>
<path d="M27 20.0429C27 16.1531 23.8661 13 20.0009 13C16.1339 13.0009 13 16.1531 13 20.0437C13 23.5582 15.5599 26.4716 18.9055 27V22.0787H17.1295V20.0437H18.9073V18.4908C18.9073 16.7262 19.9528 15.7515 21.5512 15.7515C22.3176 15.7515 23.1181 15.8889 23.1181 15.8889V17.6212H22.2353C21.3666 17.6212 21.0954 18.1645 21.0954 18.7218V20.0429H23.0359L22.7262 22.0779H21.0945V26.9991C24.4401 26.4707 27 23.5573 27 20.0429Z" fill="black"/>
</svg>
