<svg width="40" height="40" viewBox="0 0 40 40" fill="none" xmlns="http://www.w3.org/2000/svg">
<circle opacity="0.2" cx="20" cy="20" r="19.5" stroke="#373A36" stroke-dasharray="2 2"/>
<path d="M17.1941 20.4058H18.5135V25.8334C18.5135 25.9405 18.6004 26.0273 18.7076 26.0273H20.9446C21.0519 26.0273 21.1388 25.9405 21.1388 25.8334V20.4313H22.6555C22.7541 20.4313 22.8371 20.3574 22.8483 20.2595L23.0787 18.2613C23.085 18.2064 23.0676 18.1513 23.0308 18.1101C22.9939 18.0688 22.9412 18.0451 22.8859 18.0451H21.1388V16.7926C21.1388 16.415 21.3423 16.2235 21.7436 16.2235C21.8008 16.2235 22.8859 16.2235 22.8859 16.2235C22.9931 16.2235 23.08 16.1367 23.08 16.0296V14.1954C23.08 14.0883 22.9931 14.0014 22.8859 14.0014H21.3117C21.3006 14.0009 21.2759 14 21.2396 14C20.9664 14 20.017 14.0536 19.267 14.743C18.4361 15.507 18.5516 16.4218 18.5792 16.5804V18.0451H17.1941C17.0869 18.0451 17 18.1319 17 18.2391V20.2117C17 20.3189 17.0869 20.4058 17.1941 20.4058Z" fill="#373A36"/>
</svg>
