<svg width="295" height="60" viewBox="0 0 295 60" fill="none" xmlns="http://www.w3.org/2000/svg">
<path d="M76.9946 30.4084V37.4153C76.9946 38.9119 77.1307 39.8642 77.4708 40.2044C77.947 40.7486 78.6273 40.9527 79.5116 40.9527H80.464V41.6329H70.1919V40.9527H71.0763C72.0967 40.9527 72.845 40.6125 73.2531 39.9323C73.4572 39.5921 73.5933 38.7078 73.5933 37.3472V21.905C73.5933 20.4084 73.4572 19.4561 73.1171 19.1159C72.6409 18.5717 71.9606 18.3676 71.0763 18.3676H70.1919V17.6874H78.9674C81.0763 17.6874 82.7769 17.8914 84.0014 18.3676C85.2259 18.8438 86.2463 19.5241 87.1307 20.6125C87.947 21.6329 88.4232 22.9254 88.4232 24.354C88.4232 26.3268 87.8109 27.8914 86.5184 29.1159C85.2259 30.3404 83.3892 30.9527 81.0762 30.9527C80.532 30.9527 79.8518 30.8846 79.1715 30.8166C78.4912 30.7486 77.7429 30.6125 76.9946 30.4084ZM76.9946 29.4561C77.6069 29.5921 78.1511 29.6601 78.6273 29.7282C79.1035 29.7962 79.5116 29.7962 79.8518 29.7962C81.0763 29.7962 82.1647 29.32 83.0491 28.3676C83.9334 27.4153 84.4096 26.1908 84.4096 24.6942C84.4096 23.6737 84.2055 22.7214 83.7973 21.837C83.3892 20.9527 82.7769 20.2724 82.0286 19.8642C81.2803 19.4561 80.396 19.184 79.3756 19.184C78.7633 19.184 78.015 19.32 77.0626 19.5241V29.4561H76.9946Z" fill="#5E6738"/>
<path d="M93.2532 24.966V28.5714C94.6137 26.1224 95.9743 24.966 97.4028 24.966C98.0831 24.966 98.5593 25.17 99.0355 25.5782C99.5117 25.9864 99.6478 26.4626 99.6478 26.9387C99.6478 27.4149 99.5117 27.7551 99.1716 28.0952C98.8314 28.4353 98.4913 28.5714 98.0831 28.5714C97.675 28.5714 97.1988 28.3673 96.7226 27.9592C96.1784 27.551 95.8382 27.3469 95.5661 27.3469C95.362 27.3469 95.158 27.483 94.8859 27.687C94.3416 28.1632 93.7974 28.9796 93.2532 30.068V37.8231C93.2532 38.7075 93.3893 39.3877 93.5933 39.8639C93.7294 40.2041 94.0015 40.4762 94.4097 40.6802C94.8178 40.8843 95.362 41.0204 96.1103 41.0204V41.6326H87.811V41.0204C88.6274 41.0204 89.2396 40.8843 89.6478 40.6122C89.9199 40.4081 90.1239 40.136 90.26 39.7279C90.328 39.5238 90.328 38.9796 90.328 38.0272V31.7687C90.328 29.8639 90.26 28.7755 90.192 28.4353C90.124 28.0952 89.9879 27.8231 89.7838 27.619C89.5797 27.483 89.3076 27.3469 89.0355 27.3469C88.6954 27.3469 88.2872 27.4149 87.811 27.619L87.6069 27.0068L92.5049 25.034H93.2532V24.966Z" fill="#5E6738"/>
<path d="M105.09 24.9659V37.9591C105.09 38.9795 105.158 39.6598 105.294 39.9999C105.43 40.3401 105.634 40.6122 105.974 40.7482C106.246 40.8843 106.791 41.0204 107.539 41.0204V41.6326H99.6478V41.0204C100.464 41.0204 100.94 40.9523 101.212 40.8163C101.484 40.6802 101.689 40.4081 101.825 40.068C101.961 39.7278 102.097 39.0476 102.097 38.0272V31.7687C102.097 29.9999 102.029 28.9115 101.961 28.3673C101.893 27.9591 101.757 27.7551 101.553 27.551C101.348 27.4149 101.144 27.3469 100.804 27.3469C100.464 27.3469 100.056 27.4149 99.5797 27.619L99.3076 27.0068L104.206 25.034H105.09V24.9659ZM103.593 16.5306C104.07 16.5306 104.478 16.7346 104.886 17.0748C105.226 17.4149 105.43 17.8231 105.43 18.3673C105.43 18.8435 105.226 19.3197 104.886 19.6598C104.546 19.9999 104.138 20.204 103.593 20.204C103.117 20.204 102.641 19.9999 102.301 19.6598C101.961 19.3197 101.757 18.9115 101.757 18.3673C101.757 17.8911 101.961 17.4829 102.301 17.0748C102.709 16.7346 103.117 16.5306 103.593 16.5306Z" fill="#5E6738"/>
<path d="M112.028 28.4353C113.185 27.2789 113.933 26.5986 114.137 26.3945C114.681 25.9183 115.225 25.5782 115.838 25.3741C116.45 25.17 117.062 25.034 117.674 25.034C118.695 25.034 119.579 25.3061 120.259 25.9183C121.008 26.5306 121.484 27.3469 121.756 28.5034C122.98 27.0748 124.001 26.1904 124.817 25.7142C125.634 25.3061 126.518 25.034 127.402 25.034C128.287 25.034 129.035 25.2381 129.715 25.7142C130.395 26.1904 130.94 26.8707 131.28 27.8911C131.552 28.5714 131.688 29.6598 131.688 31.0884V38.0272C131.688 39.0476 131.756 39.7279 131.892 40.136C132.028 40.4081 132.232 40.6122 132.572 40.8163C132.912 41.0204 133.389 41.0884 134.137 41.0884V41.7006H126.11V41.0884H126.45C127.13 41.0884 127.674 40.9523 128.083 40.6802C128.355 40.4761 128.559 40.204 128.695 39.7959C128.763 39.5918 128.763 39.0476 128.763 38.0952V31.1564C128.763 29.8639 128.627 28.9115 128.287 28.3673C127.81 27.619 127.062 27.2108 126.11 27.2108C125.497 27.2108 124.885 27.3469 124.205 27.687C123.525 28.0272 122.844 28.5714 121.892 29.4557L121.824 29.6598L121.892 30.4081V38.0952C121.892 39.1836 121.96 39.8639 122.096 40.136C122.232 40.4081 122.436 40.6122 122.776 40.8163C123.117 41.0204 123.729 41.0884 124.545 41.0884V41.7006H116.382V41.0884C117.266 41.0884 117.878 40.9523 118.219 40.7483C118.559 40.5442 118.763 40.204 118.899 39.7959C118.967 39.5918 118.967 38.9796 118.967 38.0272V31.0884C118.967 29.7959 118.763 28.8435 118.355 28.2313C117.81 27.483 117.13 27.0748 116.178 27.0748C115.566 27.0748 114.885 27.2789 114.273 27.619C113.321 28.1632 112.572 28.7074 112.028 29.3877V38.0272C112.028 39.1156 112.096 39.7959 112.232 40.068C112.368 40.4081 112.572 40.6122 112.912 40.8163C113.185 40.9523 113.797 41.0884 114.681 41.0884V41.7006H106.654V41.0884C107.402 41.0884 107.946 41.0204 108.219 40.8163C108.491 40.6802 108.763 40.4081 108.899 40.068C109.035 39.7279 109.103 39.0476 109.103 38.0272V31.8367C109.103 30.068 109.035 28.9115 108.967 28.3673C108.899 27.9591 108.763 27.687 108.559 27.551C108.355 27.4149 108.151 27.3469 107.81 27.3469C107.47 27.3469 107.062 27.4149 106.654 27.619L106.382 27.0068L111.28 25.034H112.028V28.4353Z" fill="#5E6738"/>
<path d="M138.287 24.966V28.5714C139.647 26.1224 141.008 24.966 142.437 24.966C143.117 24.966 143.593 25.17 144.069 25.5782C144.545 25.9864 144.681 26.4626 144.681 26.9387C144.681 27.4149 144.545 27.7551 144.205 28.0952C143.865 28.4353 143.525 28.5714 143.117 28.5714C142.709 28.5714 142.232 28.3673 141.756 27.9592C141.212 27.551 140.872 27.3469 140.6 27.3469C140.396 27.3469 140.192 27.483 139.92 27.687C139.375 28.1632 138.831 28.9796 138.287 30.068V37.8231C138.287 38.7075 138.423 39.3877 138.627 39.8639C138.763 40.2041 139.035 40.4762 139.443 40.6802C139.852 40.8843 140.396 41.0204 141.144 41.0204V41.6326H132.845V41.0204C133.661 41.0204 134.273 40.8843 134.681 40.6122C134.954 40.4081 135.158 40.136 135.294 39.7279C135.362 39.5238 135.362 38.9796 135.362 38.0272V31.7687C135.362 29.8639 135.294 28.7755 135.226 28.4353C135.158 28.0952 135.022 27.8231 134.817 27.619C134.613 27.483 134.341 27.3469 134.069 27.3469C133.729 27.3469 133.321 27.4149 132.845 27.619L132.641 27.0068L137.539 25.034H138.287V24.966Z" fill="#5E6738"/>
<path d="M151.28 24.966C153.729 24.966 155.702 25.9183 157.198 27.7551C158.491 29.3197 159.103 31.1564 159.103 33.1972C159.103 34.6258 158.763 36.1224 158.083 37.619C157.402 39.1156 156.45 40.2041 155.226 40.9524C154.001 41.7007 152.641 42.1088 151.144 42.1088C148.695 42.1088 146.79 41.1564 145.362 39.1836C144.137 37.551 143.525 35.7143 143.525 33.6734C143.525 32.1768 143.865 30.7483 144.613 29.2517C145.362 27.7551 146.314 26.7347 147.539 25.9864C148.695 25.3741 149.987 24.966 151.28 24.966ZM150.736 26.1224C150.124 26.1224 149.511 26.3265 148.831 26.6666C148.219 27.0068 147.675 27.687 147.334 28.6394C146.926 29.5918 146.722 30.7483 146.722 32.2449C146.722 34.6258 147.198 36.5986 148.151 38.3673C149.103 40.068 150.328 40.9524 151.824 40.9524C152.981 40.9524 153.933 40.4762 154.681 39.5238C155.43 38.5714 155.77 36.9387 155.77 34.6939C155.77 31.8367 155.158 29.5918 153.933 27.8911C153.117 26.7347 152.028 26.1224 150.736 26.1224Z" fill="#5E6738"/>
<path d="M169.443 24.966V30.4762H168.831C168.355 28.7755 167.811 27.551 167.13 26.9388C166.45 26.3265 165.566 25.9864 164.477 25.9864C163.661 25.9864 162.981 26.1905 162.505 26.6667C162.028 27.0748 161.756 27.619 161.756 28.0952C161.756 28.7755 161.96 29.3197 162.301 29.7959C162.641 30.2721 163.389 30.8163 164.545 31.3605L167.13 32.585C169.511 33.7415 170.736 35.3061 170.736 37.2109C170.736 38.7075 170.192 39.8639 169.035 40.7483C167.947 41.6326 166.654 42.1088 165.294 42.1088C164.273 42.1088 163.185 41.9048 161.892 41.5646C161.484 41.4286 161.212 41.3605 160.94 41.3605C160.668 41.3605 160.464 41.4966 160.328 41.8367H159.715V36.0544H160.328C160.668 37.6871 161.28 38.9116 162.233 39.7959C163.185 40.6803 164.205 41.0204 165.362 41.0204C166.178 41.0204 166.858 40.7483 167.335 40.2721C167.811 39.7959 168.083 39.2517 168.083 38.5714C168.083 37.7551 167.811 37.0748 167.198 36.5306C166.654 35.9864 165.498 35.3061 163.797 34.4218C162.096 33.6054 160.94 32.7891 160.464 32.1088C159.92 31.4286 159.647 30.6122 159.647 29.5918C159.647 28.2313 160.124 27.1428 161.008 26.2585C161.892 25.3741 163.117 24.8979 164.545 24.8979C165.158 24.8979 165.974 25.034 166.858 25.3061C167.471 25.5102 167.879 25.5782 168.083 25.5782C168.287 25.5782 168.423 25.5102 168.491 25.4422C168.559 25.3741 168.695 25.1701 168.831 24.8979H169.443V24.966Z" fill="#5E6738"/>
<path d="M173.593 31.5646C173.593 33.9455 174.137 35.8503 175.362 37.2109C176.518 38.5714 177.947 39.2517 179.511 39.2517C180.6 39.2517 181.484 38.9796 182.301 38.3673C183.117 37.7551 183.729 36.8027 184.273 35.3741L184.817 35.7143C184.545 37.3469 183.865 38.7755 182.641 40.136C181.484 41.4285 179.988 42.1088 178.151 42.1088C176.178 42.1088 174.545 41.3605 173.185 39.8639C171.824 38.3673 171.144 36.3265 171.144 33.7415C171.144 30.9523 171.824 28.8435 173.253 27.2789C174.681 25.7143 176.45 24.966 178.627 24.966C180.464 24.966 181.96 25.5782 183.117 26.7347C184.273 27.9591 184.886 29.5238 184.886 31.4966H173.593V31.5646ZM173.593 30.5442H181.076C181.008 29.5238 180.872 28.7755 180.736 28.3673C180.464 27.687 179.988 27.2109 179.443 26.8027C178.831 26.3945 178.219 26.2585 177.607 26.2585C176.654 26.2585 175.77 26.6666 174.954 27.4149C174.205 28.0952 173.729 29.1836 173.593 30.5442Z" fill="#5E6738"/>
<path d="M207.743 17.1429V25.4422H207.062C206.858 23.8775 206.45 22.585 205.906 21.6326C205.362 20.6803 204.545 19.932 203.593 19.3878C202.573 18.8435 201.552 18.5714 200.464 18.5714C199.239 18.5714 198.219 18.9116 197.403 19.6599C196.586 20.4082 196.178 21.2245 196.178 22.2449C196.178 22.9932 196.45 23.6735 196.926 24.2177C197.675 25.102 199.375 26.2585 202.165 27.7551C204.409 28.9796 205.906 29.8639 206.722 30.5442C207.539 31.1565 208.151 31.9728 208.627 32.7891C209.035 33.6735 209.307 34.5578 209.307 35.5102C209.307 37.3469 208.627 38.9116 207.199 40.2041C205.77 41.4966 204.001 42.1769 201.756 42.1769C201.076 42.1769 200.396 42.1088 199.784 42.0408C199.443 41.9728 198.695 41.7687 197.539 41.4286C196.382 41.0884 195.634 40.8843 195.362 40.8843C195.09 40.8843 194.818 40.9524 194.682 41.1565C194.545 41.3605 194.409 41.7007 194.273 42.2449H193.593V34.0136H194.273C194.614 35.7143 195.022 37.0068 195.498 37.8912C196.042 38.7755 196.79 39.4558 197.879 40C198.967 40.5442 200.124 40.8163 201.416 40.8163C202.913 40.8163 204.069 40.4082 204.886 39.6599C205.702 38.9116 206.178 37.9592 206.178 36.9388C206.178 36.3265 206.042 35.7823 205.702 35.1701C205.362 34.5578 204.886 34.0136 204.205 33.4694C203.729 33.1293 202.505 32.3809 200.464 31.2245C198.423 30.068 196.926 29.1837 196.11 28.5034C195.226 27.8231 194.613 27.0748 194.137 26.2585C193.661 25.4422 193.457 24.5578 193.457 23.5374C193.457 21.8367 194.137 20.3401 195.43 19.1156C196.722 17.8912 198.423 17.2789 200.464 17.2789C201.756 17.2789 203.117 17.619 204.477 18.2313C205.158 18.5034 205.634 18.6395 205.906 18.6395C206.246 18.6395 206.45 18.5714 206.654 18.3673C206.858 18.1633 206.994 17.8231 207.131 17.2789H207.743V17.1429Z" fill="#5E6738"/>
<path d="M224.001 35.5102C223.593 37.619 222.709 39.2517 221.416 40.4081C220.124 41.5646 218.763 42.1088 217.198 42.1088C215.362 42.1088 213.729 41.3605 212.368 39.7959C211.008 38.2313 210.328 36.1904 210.328 33.5374C210.328 31.0204 211.076 28.9115 212.573 27.3469C214.069 25.7823 215.906 24.966 218.015 24.966C219.579 24.966 220.94 25.3741 221.96 26.2585C222.981 27.1428 223.525 27.9592 223.525 28.9115C223.525 29.3877 223.389 29.7279 223.117 30C222.845 30.2721 222.436 30.4081 221.892 30.4081C221.212 30.4081 220.668 30.2041 220.328 29.7279C220.124 29.4558 219.988 28.9796 219.919 28.2993C219.851 27.619 219.647 27.0748 219.171 26.7347C218.763 26.3945 218.219 26.1904 217.47 26.1904C216.314 26.1904 215.362 26.5986 214.613 27.483C213.661 28.6394 213.185 30.136 213.185 32.0408C213.185 33.9455 213.661 35.6462 214.613 37.1428C215.566 38.6394 216.858 39.3877 218.423 39.3877C219.579 39.3877 220.6 38.9796 221.552 38.2313C222.232 37.687 222.845 36.7347 223.457 35.3061L224.001 35.5102Z" fill="#5E6738"/>
<path d="M227.947 16.5306V28.3673C229.239 26.9387 230.26 25.9863 231.076 25.5782C231.892 25.17 232.573 24.9659 233.389 24.9659C234.273 24.9659 235.09 25.238 235.77 25.7142C236.45 26.1904 236.926 27.0067 237.267 28.0952C237.471 28.8435 237.607 30.204 237.607 32.2448V37.9591C237.607 38.9795 237.675 39.6598 237.879 40.068C238.015 40.3401 238.219 40.5442 238.491 40.7482C238.763 40.8843 239.307 41.0203 240.056 41.0203V41.6326H232.097V41.0203H232.437C233.185 41.0203 233.729 40.8843 234.001 40.6802C234.273 40.4761 234.477 40.136 234.614 39.6598C234.682 39.4557 234.682 38.9115 234.682 38.0272V32.3129C234.682 30.5442 234.614 29.3877 234.409 28.8435C234.205 28.2993 233.933 27.8911 233.525 27.619C233.117 27.3469 232.641 27.2108 232.097 27.2108C231.552 27.2108 230.94 27.3469 230.328 27.687C229.716 28.0272 228.967 28.6394 228.083 29.5238V38.0952C228.083 39.1836 228.151 39.8639 228.287 40.136C228.423 40.4081 228.627 40.6122 228.967 40.8163C229.307 41.0204 229.852 41.0884 230.736 41.0884V41.7006H222.709V41.0884C223.457 41.0884 224.001 40.9523 224.409 40.7482C224.614 40.6122 224.818 40.4081 224.954 40.068C225.09 39.7278 225.158 39.0476 225.158 38.0272V23.4013C225.158 21.5646 225.09 20.4081 225.022 19.9999C224.954 19.5918 224.818 19.3197 224.614 19.1156C224.409 18.9795 224.205 18.9115 223.865 18.9115C223.593 18.9115 223.185 18.9795 222.641 19.1836L222.369 18.5714L227.199 16.5986H227.947V16.5306Z" fill="#5E6738"/>
<path d="M246.791 24.966C249.24 24.966 251.213 25.9183 252.709 27.7551C254.002 29.3197 254.614 31.1564 254.614 33.1972C254.614 34.6258 254.274 36.1224 253.593 37.619C252.913 39.1156 251.961 40.2041 250.736 40.9524C249.512 41.7007 248.151 42.1088 246.655 42.1088C244.206 42.1088 242.301 41.1564 240.872 39.1836C239.648 37.551 239.036 35.7143 239.036 33.6734C239.036 32.1768 239.376 30.7483 240.124 29.2517C240.872 27.7551 241.825 26.7347 243.049 25.9864C244.138 25.3741 245.43 24.966 246.791 24.966ZM246.247 26.1224C245.634 26.1224 245.022 26.3265 244.342 26.6666C243.73 27.0068 243.185 27.687 242.845 28.6394C242.437 29.5918 242.233 30.7483 242.233 32.2449C242.233 34.6258 242.709 36.5986 243.661 38.3673C244.614 40.068 245.838 40.9524 247.335 40.9524C248.491 40.9524 249.444 40.4762 250.192 39.5238C250.94 38.5714 251.281 36.9387 251.281 34.6939C251.281 31.8367 250.668 29.5918 249.444 27.8911C248.559 26.7347 247.539 26.1224 246.247 26.1224Z" fill="#5E6738"/>
<path d="M263.321 24.966C265.77 24.966 267.743 25.9183 269.239 27.7551C270.532 29.3197 271.144 31.1564 271.144 33.1972C271.144 34.6258 270.804 36.1224 270.124 37.619C269.443 39.1156 268.491 40.2041 267.267 40.9524C266.042 41.7007 264.682 42.1088 263.185 42.1088C260.736 42.1088 258.831 41.1564 257.403 39.1836C256.178 37.551 255.566 35.7143 255.566 33.6734C255.566 32.1768 255.906 30.7483 256.654 29.2517C257.403 27.7551 258.355 26.7347 259.58 25.9864C260.668 25.3741 261.96 24.966 263.321 24.966ZM262.777 26.1224C262.165 26.1224 261.552 26.3265 260.872 26.6666C260.26 27.0068 259.716 27.687 259.375 28.6394C258.967 29.5918 258.763 30.7483 258.763 32.2449C258.763 34.6258 259.239 36.5986 260.192 38.3673C261.144 40.068 262.369 40.9524 263.865 40.9524C265.022 40.9524 265.974 40.4762 266.722 39.5238C267.471 38.5714 267.811 36.9387 267.811 34.6939C267.811 31.8367 267.199 29.5918 265.974 27.8911C265.09 26.7347 264.069 26.1224 262.777 26.1224Z" fill="#5E6738"/>
<path d="M275.09 16.5306V37.9591C275.09 38.9795 275.158 39.6598 275.294 39.9999C275.43 40.3401 275.634 40.6122 275.975 40.7482C276.315 40.9523 276.859 41.0204 277.675 41.0204V41.6326H269.716V41.0204C270.464 41.0204 270.941 40.9523 271.213 40.8163C271.485 40.6802 271.689 40.4081 271.825 40.068C271.961 39.7278 272.029 39.0476 272.029 38.0272V23.3333C272.029 21.4965 271.961 20.4081 271.893 19.9999C271.825 19.5918 271.689 19.3197 271.485 19.1156C271.281 18.9795 271.077 18.9115 270.805 18.9115C270.464 18.9115 270.124 18.9795 269.648 19.1836L269.376 18.5714L274.206 16.5986H275.09V16.5306Z" fill="#5E6738"/>
<path d="M288.356 24.966V30.4762H287.743C287.267 28.7755 286.723 27.551 286.043 26.9388C285.362 26.3265 284.478 25.9864 283.39 25.9864C282.573 25.9864 281.893 26.1905 281.417 26.6667C280.941 27.0748 280.668 27.619 280.668 28.0952C280.668 28.7755 280.873 29.3197 281.213 29.7959C281.553 30.2721 282.301 30.8163 283.458 31.3605L286.043 32.585C288.424 33.7415 289.648 35.3061 289.648 37.2109C289.648 38.7075 289.104 39.8639 287.947 40.7483C286.859 41.6326 285.566 42.1088 284.206 42.1088C283.185 42.1088 282.097 41.9048 280.805 41.5646C280.396 41.4286 280.124 41.3605 279.852 41.3605C279.58 41.3605 279.376 41.4966 279.24 41.8367H278.628V36.0544H279.24C279.58 37.6871 280.192 38.9116 281.145 39.7959C282.097 40.6122 283.117 41.0204 284.274 41.0204C285.09 41.0204 285.77 40.7483 286.247 40.2721C286.791 39.7959 286.995 39.2517 286.995 38.5714C286.995 37.7551 286.723 37.0748 286.111 36.5306C285.566 35.9864 284.41 35.3061 282.709 34.4218C281.009 33.6054 279.852 32.7891 279.376 32.1088C278.832 31.4286 278.56 30.6122 278.56 29.5918C278.56 28.2313 279.036 27.1428 279.92 26.2585C280.804 25.3741 282.029 24.8979 283.458 24.8979C284.07 24.8979 284.886 25.034 285.77 25.3061C286.383 25.5102 286.791 25.5782 286.995 25.5782C287.199 25.5782 287.335 25.5102 287.403 25.4422C287.539 25.3741 287.607 25.1701 287.743 24.8979H288.356V24.966Z" fill="#5E6738"/>
<path d="M291.961 20.9523C292.369 20.9523 292.709 21.0203 293.117 21.2244C293.457 21.4285 293.797 21.7006 294.001 22.1088C294.205 22.5169 294.341 22.8571 294.341 23.2652C294.341 23.6734 294.205 24.0815 294.001 24.4217C293.797 24.7618 293.525 25.102 293.117 25.306C292.777 25.5101 292.369 25.6462 291.961 25.6462C291.552 25.6462 291.144 25.5101 290.804 25.306C290.464 25.102 290.124 24.8298 289.92 24.4217C289.716 24.0815 289.58 23.6734 289.58 23.2652C289.58 22.8571 289.716 22.4489 289.92 22.1088C290.124 21.7686 290.396 21.4285 290.804 21.2244C291.212 21.0883 291.62 20.9523 291.961 20.9523ZM291.961 21.1564C291.62 21.1564 291.28 21.2244 290.94 21.4285C290.6 21.6326 290.328 21.9047 290.124 22.2448C289.92 22.5849 289.852 22.9251 289.852 23.3332C289.852 23.6734 289.92 24.0815 290.124 24.4217C290.328 24.7618 290.6 25.0339 290.94 25.238C291.28 25.4421 291.62 25.5101 292.029 25.5101C292.437 25.5101 292.777 25.4421 293.117 25.238C293.457 25.0339 293.729 24.7618 293.933 24.4217C294.137 24.0815 294.205 23.7414 294.205 23.3332C294.205 22.9931 294.137 22.5849 293.933 22.2448C293.729 21.9047 293.457 21.6326 293.117 21.4285C292.777 21.2244 292.369 21.1564 291.961 21.1564ZM290.668 21.9047H291.961C292.301 21.9047 292.505 21.9727 292.709 22.1088C292.845 22.2448 292.981 22.4489 292.981 22.653C292.981 22.789 292.913 22.9931 292.845 23.0611C292.777 23.1292 292.573 23.2652 292.301 23.3332L292.981 24.2856C293.049 24.4217 293.117 24.4897 293.185 24.5577C293.253 24.5577 293.253 24.6258 293.389 24.6258V24.7618H292.777L291.824 23.4013H291.552V24.4217C291.552 24.4897 291.62 24.5577 291.62 24.5577C291.688 24.5577 291.756 24.6258 291.893 24.6258V24.7618H290.668V24.6258C290.804 24.6258 290.872 24.6258 290.872 24.5577C290.872 24.4897 290.94 24.4897 290.94 24.4217C290.94 24.3537 290.94 24.2856 290.94 24.0815V22.3809C290.94 22.2448 290.94 22.1088 290.94 22.1088C290.94 22.0407 290.872 22.0407 290.872 21.9727C290.804 21.9727 290.736 21.9047 290.668 21.9047ZM291.484 23.2652C291.756 23.2652 291.961 23.2652 292.029 23.1972C292.097 23.1292 292.233 23.0611 292.301 22.9931C292.369 22.9251 292.369 22.789 292.369 22.653C292.369 22.4489 292.301 22.3128 292.165 22.1768C292.029 22.0407 291.893 21.9727 291.688 21.9727C291.62 21.9727 291.484 21.9727 291.416 22.0407V23.2652H291.484Z" fill="#5E6738"/>
<path d="M54.6938 18.0274C54.7619 18.1635 54.7619 18.3675 54.6258 18.6396C54.4897 18.9117 54.2857 19.1158 54.0136 19.2519C53.6734 19.456 53.4013 19.456 53.2653 19.1839C53.1972 19.0478 53.1972 18.8437 53.4013 18.5716C53.5374 18.2995 53.4693 17.8233 53.0612 17.143C52.9251 16.8709 52.7891 16.7349 52.653 16.6669C52.517 16.5988 52.3809 16.6668 52.1768 16.7349L51.4965 17.075C51.3605 17.143 51.2244 17.2791 51.2244 17.3471C51.2244 17.4152 51.2925 17.5512 51.4285 17.7553C51.5646 17.9594 51.7687 17.9594 52.0408 17.8913C52.3129 17.7553 52.517 17.8233 52.653 17.9594C52.721 18.0954 52.721 18.2995 52.517 18.4356C52.3809 18.6396 52.1088 18.8437 51.7006 19.0478C51.2925 19.2519 51.0204 19.3879 50.7482 19.456C50.4761 19.456 50.2721 19.456 50.204 19.2519C50.136 19.1158 50.204 18.9798 50.4761 18.7757C50.6802 18.5716 50.7483 18.2995 50.6122 18.0274C50.5442 17.8913 50.4761 17.8233 50.3401 17.8233C50.2721 17.8233 50.068 17.8913 49.8639 18.0274C49.3877 18.2995 49.1156 18.5036 49.0476 18.6396C48.9795 18.7757 49.0476 19.0478 49.2517 19.3879C49.5238 19.7961 49.7278 20.0682 49.9319 20.2043C50.136 20.3403 50.4081 20.4083 50.6122 20.4083C50.8843 20.4083 51.0204 20.4083 51.1564 20.4083C51.2244 20.4083 51.2925 20.4764 51.3605 20.6124C51.4285 20.7485 51.4285 20.8165 51.3605 20.9526C51.2925 21.0886 51.2244 21.1566 51.0204 21.2927C50.8163 21.4287 50.4761 21.4968 49.9999 21.5648C49.5238 21.6328 49.2517 21.5648 49.1836 21.3607C49.1156 21.2927 49.0476 21.1566 48.9795 20.8845C48.9115 20.6805 48.8435 20.4764 48.7755 20.4083L46.8707 17.075C46.7346 16.8029 46.7346 16.5988 46.9387 16.4628C47.0748 16.3947 47.2108 16.3947 47.3469 16.5308C47.551 16.6668 47.687 16.6668 47.8911 16.5988C48.0952 16.5308 48.3673 16.4628 48.5714 16.3267C48.8435 16.1907 49.1156 16.0546 49.5238 15.8505C50.5442 15.2383 51.0884 14.8981 51.2244 14.6941C51.3605 14.558 51.3605 14.4219 51.3605 14.3539C51.3605 14.2859 51.3605 14.2179 51.3605 14.0818C51.2925 13.9458 51.3605 13.8097 51.4965 13.6736C51.6326 13.6056 51.7687 13.6056 51.9047 13.6736C52.0408 13.7417 52.1768 13.9458 52.3809 14.2859L53.5374 16.3267C53.7414 16.6669 53.8775 16.939 54.0136 17.143C54.1496 17.3471 54.2857 17.4832 54.4897 17.6873L54.6938 18.0274Z" fill="#5E6738"/>
<path d="M53.2656 44.8981H53.1296L43.9459 43.4015C40.9527 46.2586 37.8235 48.0954 33.8779 48.9117C27.9595 50.0682 22.1772 48.3675 17.7554 44.8301L15.8507 42.9253H10.6126C11.2248 43.4695 11.8371 44.8981 12.0411 45.4423L12.1772 45.8505C12.1092 45.9185 12.0411 45.9185 11.9731 45.8505C10.5445 44.2178 8.57175 43.3335 4.96631 42.3811C4.96631 42.3131 4.96631 42.245 5.03434 42.245C7.75543 41.6328 10.6126 40.1362 12.0411 38.6396C12.0411 38.6396 12.1092 38.6396 12.1772 38.6396C12.1772 38.8437 12.1092 39.0478 12.0411 39.2518C11.8371 39.8641 10.8847 41.4967 10.6806 41.6328H14.8303C12.5854 38.8437 11.3609 35.4423 10.9527 31.7688C10.1364 23.8097 14.286 16.3947 21.1568 12.8573C25.1024 10.7484 30.1364 10.0001 34.7622 11.0886C34.7622 11.0886 34.8303 11.0886 34.8983 11.1566C36.8711 11.7008 38.7758 12.5171 40.5445 13.6056C45.1024 16.5988 48.3677 21.2927 49.116 26.4627C50.0003 31.6328 48.8439 36.9389 46.0547 40.9525C48.5037 40.4763 50.8167 40.0001 53.3337 39.592C52.4493 40.2722 51.2928 41.3607 50.8847 42.245C51.2248 43.2654 52.4493 44.2859 53.2656 44.8981ZM48.5037 32.7893C48.7078 31.4967 48.7758 30.2042 48.7078 28.9117C48.5037 22.5171 44.6262 16.7348 39.0479 13.6736C37.4153 12.7212 35.6466 12.041 33.6738 11.7008C30.5445 11.0886 27.3473 11.2927 24.4221 12.245C20.3405 13.6056 16.803 16.3267 14.3541 20.0001C12.5173 23.0614 11.3609 26.4627 11.4289 30.2722C11.633 34.558 12.9255 38.4355 15.7146 41.5648H24.15C24.3541 41.4967 24.4221 41.2246 24.4901 41.0205C24.8303 38.8437 25.3064 36.3947 24.5581 34.2178C24.286 33.1294 23.7418 32.177 23.1976 31.2246C22.1772 29.592 20.3405 28.2314 20.2724 26.2586C20.2044 24.762 21.0207 23.4695 22.1772 22.5852C22.8575 21.9729 23.7418 21.7008 24.218 20.8845C23.8779 21.0205 23.3337 21.3607 22.9255 21.0205C22.7214 20.8845 22.5173 20.5444 22.5173 20.2042C22.5173 19.1158 23.6738 18.5716 23.6058 17.4831C23.1976 17.143 22.5173 17.211 21.9731 17.279L21.9051 17.211C21.8371 16.3947 22.7894 16.0546 23.4017 15.7825C23.6058 15.5103 23.4697 15.3063 23.4017 14.8981C23.3337 14.558 23.4697 14.2859 23.7418 14.0818C23.9459 13.9457 24.218 13.9457 24.3541 14.0818C24.4901 14.0137 24.4901 13.8097 24.6942 13.7416C24.6942 13.7416 24.7622 13.7416 24.7622 13.6736C24.9663 13.6056 25.1704 13.7416 25.2384 13.8777C25.3064 13.8097 25.5105 13.6056 25.6466 13.6056C25.8507 13.6736 25.9187 13.8777 26.0547 14.0137C26.1228 14.1498 26.2588 14.0137 26.3269 13.9457C26.599 13.8097 26.9391 14.0818 27.0752 14.2859C27.2792 14.3539 27.4833 14.0818 27.6874 14.3539C27.6194 14.762 28.0275 14.8301 28.2996 14.694C28.6398 14.8301 28.3677 15.2382 28.5037 15.5103C28.6398 15.5103 28.9119 15.5103 28.9799 15.7144C29.0479 15.9185 29.116 16.3267 28.8439 16.5307C28.4357 16.7348 28.0956 16.6668 27.6194 16.6668C27.4153 16.6668 27.2112 16.4627 27.0071 16.5307C27.0071 16.6668 27.0071 16.7348 27.0071 16.8029C27.3473 17.143 27.5513 17.5512 27.7554 17.9593C28.2316 19.0478 28.5037 20.2042 29.0479 21.2246C29.6602 23.1294 30.2044 25.1022 30.5445 27.075V27.143C30.6126 27.075 30.6126 26.9389 30.6806 26.8709C30.8167 23.4695 30.4085 19.728 33.1296 17.4151C34.3541 16.3267 36.1908 16.8709 37.5513 17.4151C41.769 19.5239 42.3132 24.3539 43.8779 28.1634C44.5581 29.5239 45.3064 30.8165 46.2588 32.0409C46.3949 32.177 46.3949 32.3131 46.3949 32.4491C46.3949 32.5171 46.2588 32.6532 46.1228 32.5852C45.7146 32.5171 45.4425 32.3131 45.1024 32.0409C43.7418 31.0886 42.8575 29.8641 42.0411 28.6396C42.2452 29.8641 42.7214 30.6124 43.4697 31.5648C43.8099 32.041 44.5581 32.3131 44.3541 32.9253C44.286 33.1974 43.8779 33.0614 43.6058 32.9253C43.0616 32.5852 42.5854 32.3131 42.0411 31.7688C41.1568 30.8845 40.6806 29.7961 39.7282 29.1838C40.0003 29.66 40.2724 30.1362 40.6806 30.6804C40.9527 31.0205 41.5649 31.6328 41.4969 32.0409C41.3609 32.3131 41.1568 32.245 40.8167 32.0409C40.1364 31.7008 39.6602 31.0205 39.184 30.5444C38.9799 30.3403 38.5037 29.728 38.5037 30.0001C38.5037 30.6124 38.9799 30.8845 39.116 31.4287C39.116 31.6328 38.9119 31.6328 38.7078 31.6328C38.2316 31.5648 37.8235 30.8165 37.6874 30.9525C37.4833 31.2927 37.8235 31.8369 37.6194 31.9729C37.2792 32.177 36.8711 31.6328 36.735 31.7008C36.3269 31.7688 36.735 32.3131 36.5309 32.7212C36.3269 32.8573 36.1228 32.6532 35.8507 32.6532C35.3745 32.8573 35.9867 33.3335 35.6466 33.6736C35.3065 33.8097 35.1704 33.4015 34.8983 33.3335C34.8303 33.6056 34.9663 34.0137 34.9663 34.3539C34.7622 34.8301 34.3541 34.2859 34.082 34.2859C34.218 34.558 34.218 34.8981 34.15 35.2382C33.8098 35.4423 33.5377 35.1022 33.2656 34.9661C32.8575 34.9661 33.1976 35.5784 33.0616 35.6464C32.4493 35.7144 32.1092 34.762 31.4969 34.8981C29.0479 35.9185 31.2248 39.592 31.701 41.7688H42.0411L44.8303 41.2246C46.8711 38.6396 48.0275 35.7825 48.5037 32.7893ZM43.3337 43.1974L42.3132 42.9933H16.9391C19.252 45.5784 22.1092 47.0069 25.1704 47.9593C31.701 49.728 38.6398 47.8233 43.3337 43.1974ZM25.6466 41.6328H30.8167C30.3405 39.728 29.6602 37.9593 28.9799 36.1906C28.8439 35.7144 28.5718 35.3743 28.0956 35.0342C27.9595 34.8981 27.4833 34.8301 27.2112 35.0342C26.9391 35.4423 26.667 35.9865 26.5309 36.4627C26.1908 38.1634 25.9187 39.8641 25.6466 41.6328Z" fill="#5E6738"/>
<path d="M50.0003 11.3602C50.1364 11.4963 50.2044 11.7684 50.1364 12.1766C50.0683 12.5847 49.9323 12.8568 49.7282 13.0609C49.5921 13.197 49.4561 13.265 49.32 13.265C49.184 13.265 49.0479 13.265 48.9119 13.1289C48.8438 13.0609 48.7758 12.7208 48.7078 12.1766C48.6398 11.6323 48.5037 11.2922 48.2996 11.0881C48.1636 10.9521 48.0275 10.884 47.8915 10.884C47.7554 10.884 47.6194 10.9521 47.5513 11.0201C47.4153 11.1561 47.4833 11.5643 47.8234 12.1766C48.1636 12.7888 48.3676 13.333 48.4357 13.7412C48.5037 14.1493 48.3676 14.5575 47.9595 15.0337C47.5513 15.4419 47.0751 15.6459 46.5309 15.6459C46.4629 15.6459 46.3949 15.6459 46.2588 15.6459C45.5785 15.5779 44.9663 15.2378 44.354 14.6936C44.0139 14.3534 43.7418 14.0133 43.4697 13.6051C43.1976 13.197 43.0615 12.9249 43.0615 12.7208C43.0615 12.5167 43.1296 12.3126 43.2656 11.9725C43.4017 11.7004 43.5377 11.4283 43.7418 11.2242C43.8098 11.1561 43.8779 11.0881 43.9459 11.0881C44.0819 11.0201 44.218 11.0201 44.354 11.1561C44.4901 11.2922 44.5581 11.4963 44.4901 11.7684C44.4221 12.0405 44.4221 12.2446 44.354 12.3806C44.354 12.5167 44.354 12.7208 44.4901 12.9249C44.6262 13.197 44.7622 13.401 44.8983 13.5371C45.0343 13.6731 45.2384 13.8092 45.3744 13.8092C45.5105 13.8772 45.6466 13.8092 45.7146 13.7412C45.8506 13.6051 45.7826 13.197 45.4425 12.5847C45.1704 11.9725 44.9663 11.4282 44.9663 10.9521C44.8983 10.4759 45.1023 10.0677 45.4425 9.65955C45.8506 9.25138 46.3949 9.04729 47.0071 9.04729C47.6193 9.11532 48.2316 9.31941 48.7758 9.86363C48.9119 9.99968 49.0479 10.2038 49.184 10.4078C49.32 10.6119 49.4561 10.816 49.5921 11.0201L49.6602 11.0881C49.7282 11.0881 49.7962 11.0881 49.8642 11.1561C49.9323 11.2922 50.0003 11.2922 50.0003 11.3602Z" fill="#5E6738"/>
<path d="M45.4418 50.1361C45.6459 50.4082 45.7139 50.6803 45.6459 50.9524C45.6459 51.2245 45.5098 51.4966 45.3738 51.7007C45.1697 51.9048 44.9656 52.1089 44.7615 52.2449C44.2853 52.5851 43.8092 52.7211 43.401 52.6531C42.9928 52.6531 42.6527 52.381 42.3126 51.9048L42.7887 51.5646C42.9248 51.7687 43.0609 51.9048 43.2649 51.9728C43.469 52.0408 43.6731 52.0408 43.8092 51.9728C44.0132 51.9048 44.1493 51.8368 44.3534 51.7007C44.4894 51.6327 44.6255 51.4966 44.7615 51.3606C44.8976 51.2245 44.9656 51.0885 45.0336 50.8844C45.1017 50.7483 45.0336 50.5442 44.9656 50.4082C44.8976 50.2721 44.7615 50.2041 44.6935 50.1361C44.6255 50.0681 44.4894 50.0681 44.3534 50.1361C44.2173 50.1361 44.0132 50.2041 43.7411 50.3402C43.537 50.4082 43.333 50.5442 43.1289 50.6123C42.9248 50.6803 42.7207 50.7483 42.5166 50.7483C42.3126 50.8164 42.1085 50.7483 41.9724 50.7483C41.7683 50.6803 41.6323 50.5442 41.4962 50.3402C41.3602 50.1361 41.2921 49.932 41.2241 49.6599C41.2241 49.4558 41.2241 49.1837 41.3602 48.9796C41.4962 48.7755 41.7003 48.5034 41.9724 48.2993C42.3806 48.0272 42.7207 47.8912 42.9928 47.8912C43.2649 47.8912 43.537 47.9592 43.7411 48.0272C43.9452 48.1633 44.0813 48.2993 44.2173 48.5034L43.7411 48.8436C43.6051 48.7075 43.469 48.5714 43.2649 48.5034C43.1289 48.4354 42.9248 48.4354 42.7887 48.5034C42.6527 48.5714 42.4486 48.6395 42.3126 48.7075C42.1085 48.8436 41.9044 49.0476 41.8364 49.2517C41.7003 49.4558 41.7683 49.6599 41.9044 49.932C42.0404 50.2041 42.3126 50.2041 42.6527 50.0681C43.1969 49.864 43.6051 49.7279 43.8772 49.5919C44.6255 49.4558 45.1017 49.5919 45.4418 50.1361Z" fill="#5E6738"/>
<path d="M43.9457 7.14293C44.1498 7.61912 44.2859 8.09531 44.2859 8.63952C44.2859 9.18374 44.1498 9.65993 43.9457 10.1361C43.7416 10.5443 43.4695 10.8164 43.1974 11.0885C42.8573 11.3606 42.5171 11.4967 42.041 11.6327C41.1566 11.8368 40.2722 11.7688 39.3879 11.2926C38.5716 10.8844 38.0273 10.2722 37.7552 9.38782C37.6872 9.25176 37.6872 9.11572 37.6872 8.97966C37.5512 8.29939 37.6192 7.55108 38.0274 6.87081C38.4355 6.05449 39.0478 5.57829 39.9321 5.30618C40.8165 5.03408 41.6328 5.17014 42.4491 5.5783C42.8573 5.78238 43.1974 5.98646 43.4695 6.25857C43.6056 6.53068 43.8097 6.80279 43.9457 7.14293ZM41.9729 7.95925C42.0409 7.21095 41.8369 6.73476 41.4287 6.53068C41.2246 6.46265 41.0205 6.46265 40.8165 6.53068C40.6124 6.5987 40.4083 6.80279 40.3403 7.0749C40.1362 7.55109 40.0001 8.09531 39.9321 8.84361C39.8641 9.59191 40.0001 10.0681 40.4083 10.2722C40.6124 10.4082 40.8165 10.4082 41.0205 10.3402C41.2246 10.2722 41.3607 10.0681 41.4967 9.79598C41.7008 9.31979 41.9049 8.70755 41.9729 7.95925Z" fill="#5E6738"/>
<path d="M42.2452 52.993L42.5173 53.5372L39.8642 54.7617L37.9595 50.6121L38.5037 50.408L40.2044 53.9454L42.2452 52.993Z" fill="#5E6738"/>
<path d="M37.6872 53.1975C37.7553 53.4696 37.7553 53.7417 37.7553 54.0138C37.7553 54.2859 37.6872 54.558 37.5512 54.8301C37.4151 55.1022 37.2791 55.3063 37.007 55.5104C36.7349 55.7145 36.4627 55.8505 36.0546 55.9866C35.6464 56.0546 35.3063 56.0546 35.0342 55.9866C34.7621 55.9186 34.49 55.7825 34.2179 55.5784C34.0138 55.3744 33.8097 55.1703 33.6736 54.8982C33.5376 54.6261 33.4696 54.422 33.4015 54.1499C33.3335 53.8778 33.3335 53.6056 33.3335 53.3335C33.3335 53.0614 33.4015 52.7893 33.5376 52.5172C33.6736 52.2451 33.8097 52.041 34.0818 51.7689C34.3539 51.5648 34.626 51.4288 35.0342 51.2927C35.4423 51.2247 35.7825 51.2247 36.0546 51.2927C36.3947 51.3607 36.5988 51.4968 36.8709 51.7009C37.075 51.905 37.2791 52.1091 37.4151 52.3812C37.5512 52.7213 37.6872 52.9254 37.6872 53.1975ZM37.143 54.3539C37.2111 54.0818 37.211 53.7417 37.075 53.4016C37.007 53.0614 36.8709 52.7893 36.6668 52.5172C36.4628 52.3131 36.2587 52.1091 35.9866 52.041C35.7145 51.973 35.4423 51.905 35.1022 51.973C34.7621 52.041 34.558 52.1771 34.3539 52.3812C34.1498 52.5852 34.0138 52.8573 33.9457 53.1295C33.8777 53.4016 33.8777 53.7417 34.0138 54.0818C34.0818 54.422 34.2179 54.6941 34.4219 54.9662C34.626 55.2383 34.8301 55.3744 35.1022 55.5104C35.3743 55.5784 35.6464 55.6465 35.9866 55.5784C36.3267 55.5104 36.5308 55.3744 36.7349 55.1703C36.9389 54.8982 37.075 54.6261 37.143 54.3539Z" fill="#5E6738"/>
<path d="M36.9389 9.1155C36.9389 9.18353 36.9389 9.18353 36.9389 9.25155C36.9389 9.45564 36.7349 9.59169 36.4627 9.65972C36.1906 9.72775 35.8505 9.72775 35.4423 9.65972C35.3743 9.65972 35.3063 9.65972 35.2383 9.59169C34.7621 9.45564 34.4219 9.31958 34.2859 9.04747C34.1498 8.77536 34.0138 8.29917 33.9457 7.55087C33.8777 6.8706 33.6736 6.46244 33.3335 6.39441C33.1974 6.39441 33.1294 6.39442 33.1294 6.46244C33.0614 6.53047 33.0614 6.66652 32.9934 6.93863C32.9253 7.3468 32.9253 7.6189 32.9253 7.75496C32.9253 7.89101 32.9934 8.02707 33.1294 8.16312C33.2655 8.29918 33.3335 8.43523 33.2655 8.57128C33.2655 8.77536 33.0614 8.91142 32.7893 8.91142C32.5172 8.97944 32.109 8.91142 31.4968 8.8434C30.4763 8.70734 29.9321 8.3672 29.9321 8.02706V7.95904C29.9321 7.82299 30.0682 7.75496 30.3403 7.6189C30.5444 7.55088 30.7485 7.14272 30.8845 6.46244L31.0886 5.1019L31.1566 4.55768C31.2246 4.08149 31.2927 3.74135 31.2247 3.60529C31.2247 3.46924 31.1566 3.33319 30.9525 3.19713C30.8165 3.06108 30.7485 2.92502 30.7485 2.78897C30.8165 2.44883 31.1566 2.31278 31.8369 2.44883C31.9729 2.44883 32.109 2.51686 32.3811 2.58488C32.5852 2.65291 32.7893 2.65292 32.9253 2.72095L34.626 2.92502C35.2383 3.06107 35.7825 3.26516 36.1226 3.60529C36.4627 3.94543 36.5988 4.3536 36.5308 4.89781C36.4627 5.23795 36.3267 5.51006 36.1226 5.71414C35.9185 5.85019 35.6464 5.98625 35.4423 6.19033C35.4423 6.25836 35.5104 6.39441 35.7825 6.53046C35.9866 6.66652 36.1906 6.87061 36.2587 7.14272C36.3267 7.41482 36.3947 7.68693 36.3947 8.02706C36.3947 8.29917 36.3947 8.50325 36.4627 8.57128C36.5308 8.63931 36.5988 8.70734 36.6668 8.77537C36.7349 8.84339 36.8709 8.84339 36.8709 8.91142C36.9389 9.04747 36.9389 9.1155 36.9389 9.1155ZM34.2859 4.89781C34.3539 4.3536 34.2178 4.01345 33.8777 3.94543C33.6736 3.94543 33.5376 4.01345 33.5376 4.28556L33.3335 5.30597C33.3335 5.44203 33.3335 5.51006 33.3335 5.57809C33.3335 5.64611 33.4015 5.64611 33.5376 5.64611C33.9457 5.71414 34.2179 5.44203 34.2859 4.89781Z" fill="#5E6738"/>
<path d="M32.5852 54.3538C32.5852 54.6259 32.5852 54.898 32.4491 55.1701C32.3811 55.4422 32.245 55.7143 32.109 55.9184C31.9729 56.1905 31.7008 56.3266 31.4287 56.4626C31.1566 56.5987 30.8165 56.6667 30.4083 56.6667C30.0002 56.6667 29.66 56.5987 29.3879 56.4626C29.1158 56.3266 28.8437 56.1225 28.7076 55.9184C28.5036 55.6463 28.4355 55.4422 28.3675 55.1701C28.2995 54.898 28.2314 54.6259 28.2314 54.3538C28.2314 54.0817 28.2995 53.8096 28.3675 53.5375C28.4355 53.2654 28.5716 52.9933 28.7076 52.7892C28.8437 52.5851 29.1158 52.381 29.3879 52.245C29.66 52.1089 30.0002 52.0409 30.4083 52.0409C30.8165 52.0409 31.1566 52.1089 31.4287 52.245C31.7008 52.381 31.9729 52.5851 32.109 52.7892C32.245 52.9933 32.3811 53.2654 32.4491 53.5375C32.5172 53.8096 32.5852 54.0817 32.5852 54.3538ZM31.7689 55.3062C31.9049 55.0341 31.9729 54.6939 31.9729 54.3538C31.9729 54.0137 31.9049 53.6735 31.7689 53.4014C31.6328 53.1293 31.4287 52.9252 31.2246 52.7892C31.0206 52.6531 30.6804 52.5851 30.4083 52.5851C30.0682 52.5851 29.7961 52.6531 29.592 52.8572C29.3879 52.9933 29.1838 53.1973 29.0478 53.4694C28.9117 53.7416 28.8437 54.0817 28.8437 54.4218C28.8437 54.762 28.9117 55.1021 29.0478 55.3742C29.1838 55.6463 29.3879 55.8504 29.592 56.0545C29.7961 56.1905 30.1362 56.2586 30.4083 56.2586C30.7485 56.2586 31.0206 56.1905 31.2246 55.9864C31.4287 55.7824 31.6328 55.5783 31.7689 55.3062Z" fill="#5E6738"/>
<path d="M29.3196 8.09525V8.16328C29.3196 8.29934 29.2515 8.43538 29.0475 8.57144C28.8434 8.70749 28.4352 8.84355 27.891 8.97961C27.3468 9.11566 26.9386 9.11566 26.6665 9.11566C26.3944 9.11566 26.2584 8.9796 26.2584 8.77552C26.2584 8.70749 26.2584 8.63947 26.2584 8.57144C26.2584 8.50341 26.3264 8.43539 26.3944 8.29933C26.4624 8.16328 26.5305 8.02723 26.5305 7.82314C26.5305 7.61906 26.4624 7.34695 26.3944 6.93879C26.3264 6.66668 26.3264 6.53063 26.2584 6.4626C26.2584 6.39457 26.1903 6.39457 26.1223 6.39457C26.0543 6.39457 25.9862 6.4626 25.9182 6.59865C25.8502 6.73471 25.7822 7.00681 25.7141 7.34695L25.442 8.70749C25.374 8.91157 25.374 9.11566 25.306 9.18369C25.2379 9.25172 25.2379 9.31974 25.1019 9.31974C25.0339 9.31974 24.8978 9.25172 24.8298 9.18369C24.6937 9.04763 24.4896 8.84355 24.2175 8.43539L23.3332 7.27892C23.1971 7.14287 23.1291 7.07484 22.993 7.07484C22.925 7.07484 22.925 7.14286 22.925 7.34695C22.925 7.483 22.9931 7.82314 23.0611 8.29933C23.1291 8.63947 23.1971 8.84355 23.1971 8.91157C23.2652 8.9796 23.3332 9.04763 23.4692 9.11566C23.6053 9.18368 23.6733 9.18369 23.7414 9.18369C23.8094 9.18369 23.8094 9.25171 23.8774 9.38776C23.9454 9.7279 23.5373 9.93198 22.7209 10.1361C21.9726 10.2721 21.6325 10.2041 21.5645 9.86396C21.5645 9.72791 21.5645 9.65988 21.7005 9.52383C21.9046 9.38777 21.9726 9.25171 22.0407 9.11566C22.0407 8.9796 22.0407 8.77553 21.9726 8.50342L21.5645 6.12246C21.4964 5.7143 21.3604 5.44218 21.2924 5.30613C21.2243 5.17007 21.0883 5.10205 20.8842 5.03402C20.6801 4.966 20.5441 4.89797 20.5441 4.69389C20.476 4.48981 20.6121 4.35375 20.8162 4.14967C21.0883 4.01361 21.4284 3.87757 21.9046 3.74151C22.3128 3.67348 22.5849 3.60545 22.7209 3.67348C22.857 3.67348 22.993 3.80953 23.1971 4.01362L24.4896 5.51021C24.6257 5.64627 24.6937 5.78233 24.7618 5.78233C24.8298 5.85036 24.8978 5.85036 24.8978 5.78233C25.0339 5.78233 25.1019 5.64627 25.1699 5.37416L25.5101 4.01362C25.6461 3.53743 25.7822 3.19729 25.9182 2.99321C26.0543 2.85715 26.3264 2.72109 26.8026 2.58504C27.0067 2.51701 27.2107 2.51702 27.4148 2.51702C27.6189 2.51702 27.755 2.51702 27.823 2.51702C28.0271 2.58505 28.1631 2.65307 28.2311 2.85716C28.2311 2.92518 28.2311 2.99321 28.2311 3.06124C28.2311 3.12927 28.1631 3.19729 28.0271 3.33334C27.891 3.4694 27.891 3.67348 27.891 3.94558C27.891 4.21769 27.959 4.69388 28.0951 5.30613C28.1631 5.64627 28.2311 6.05443 28.3672 6.39457C28.4352 6.7347 28.5713 7.00682 28.6393 7.27892C28.7073 7.48301 28.7754 7.61906 28.9114 7.61906C28.9794 7.68709 29.1155 7.68709 29.1835 7.75511C29.2516 7.89117 29.3196 8.02722 29.3196 8.09525Z" fill="#5E6738"/>
<path d="M27.5512 51.9726L26.5988 56.3944L25.9865 56.2584L26.4627 54.2175L24.1498 53.6733L23.7416 55.7822L23.1294 55.6461L24.0818 51.2243L24.694 51.3604L24.2859 53.1971L26.5988 53.6733L26.9389 51.8366L27.5512 51.9726Z" fill="#5E6738"/>
<path d="M22.7893 51.2246C22.8573 51.4967 22.8573 51.8368 22.7893 52.177L22.2451 51.9048C22.3131 51.5647 22.2451 51.3606 22.109 51.0885C21.973 50.8844 21.7689 50.6804 21.4968 50.5443C21.4287 50.5443 21.4287 50.4763 21.3607 50.4763C21.2927 50.4763 21.2247 50.4082 21.2247 50.4082C21.0206 50.3402 20.7485 50.3402 20.5444 50.4082C20.3403 50.4763 20.1362 50.6123 19.9321 50.8164C19.7281 51.0205 19.592 51.2246 19.456 51.4967C19.3199 51.7688 19.2519 52.0409 19.1838 52.313C19.1158 52.5851 19.1838 52.7892 19.1838 52.9933C19.2519 53.1974 19.3199 53.3334 19.456 53.4695C19.592 53.6055 19.7281 53.7416 19.8641 53.8096C20.2042 53.9457 20.5444 54.0137 20.8845 53.8776C21.1566 53.7416 21.4287 53.5375 21.6328 53.1974L22.177 53.4695C21.973 53.7416 21.7689 54.0137 21.4968 54.1497C21.2247 54.2858 20.9526 54.4219 20.6124 54.4219C20.2723 54.4219 20.0002 54.4219 19.66 54.2858C19.3199 54.1497 19.0478 53.9457 18.9117 53.7416C18.7077 53.5375 18.5716 53.2654 18.5036 52.9933C18.4355 52.7212 18.4355 52.4491 18.4355 52.177C18.5036 51.9048 18.5716 51.5647 18.7077 51.2926V51.2246V51.1565C18.8437 50.8164 19.0478 50.5443 19.3199 50.2722C19.592 50.0001 19.9321 49.864 20.2723 49.796C20.6804 49.728 21.0886 49.796 21.4968 49.9321C21.7009 50.0681 21.973 50.2042 22.177 50.3402C22.5172 50.7484 22.7213 50.9525 22.7893 51.2246Z" fill="#5E6738"/>
<path d="M20.8167 10.3401C20.9528 10.5442 20.8847 10.8163 20.5446 11.0884C20.2045 11.3605 19.8643 11.6326 19.4562 11.8367C18.5718 12.3809 18.0276 12.4489 17.8235 12.1088C17.7555 12.0407 17.7555 11.9727 17.7555 11.9047C17.7555 11.8367 17.8235 11.7686 17.8915 11.6326C17.9596 11.4965 17.9596 11.3605 17.9596 11.2244C17.9596 11.0884 17.8235 10.8163 17.5514 10.4081L17.0072 9.45571L16.8711 9.25163C16.531 8.63939 16.3269 8.29925 16.1228 8.09517C15.9868 7.95912 15.7827 7.89109 15.5786 7.82307C15.3745 7.82307 15.1705 7.75504 15.1024 7.61898C14.9664 7.4149 15.1024 7.14279 15.4426 6.87068C15.7827 6.59857 16.1909 6.32647 16.531 6.12239C17.4834 5.57817 18.0276 5.51013 18.2317 5.85027C18.2997 5.98632 18.2997 6.12238 18.2317 6.19041L18.1637 6.32646C18.0956 6.46251 18.0956 6.59857 18.1637 6.87068C18.2317 7.07476 18.4358 7.48293 18.7759 8.09517L18.98 8.36728L19.5922 9.38768C19.7963 9.72782 19.8643 9.86388 20.0004 9.9319C20.0684 9.99993 20.2045 10.068 20.4086 9.99993C20.5446 10.136 20.6807 10.204 20.8167 10.3401Z" fill="#5E6738"/>
<path d="M18.8438 48.9114C18.9799 49.1835 18.9799 49.4557 18.9799 49.6597C18.9118 49.8638 18.8438 50.0679 18.7078 50.272L18.2316 49.9318C18.3676 49.7278 18.3676 49.5917 18.3676 49.3876C18.3676 49.1835 18.2996 49.0475 18.2316 48.9114C18.0955 48.7754 18.0275 48.6393 17.8914 48.5033C17.6874 48.3672 17.4833 48.2992 17.2112 48.2312C17.0071 48.2312 16.803 48.2992 16.5989 48.5713C16.4629 48.8434 16.4629 49.0475 16.735 49.3196C17.1431 49.7958 17.4152 50.0679 17.6193 50.272C18.0955 50.8162 18.0955 51.3604 17.7554 51.8366C17.5513 52.1087 17.3472 52.2448 17.0751 52.3128C16.803 52.3808 16.5309 52.3808 16.2588 52.3128C15.9867 52.2448 15.7146 52.1087 15.5105 51.9046C15.0343 51.5645 14.7622 51.2244 14.6261 50.8162C14.4901 50.408 14.6261 49.9999 14.8982 49.5917L15.3744 49.9318C15.2384 50.1359 15.1703 50.34 15.1703 50.5441C15.1703 50.7482 15.2384 50.9522 15.3744 51.0883C15.5105 51.2244 15.6465 51.3604 15.7826 51.4965C15.9186 51.6325 16.0547 51.7005 16.2588 51.7686C16.3948 51.8366 16.5989 51.8366 16.735 51.8366C16.871 51.8366 17.0751 51.7005 17.1431 51.5645C17.2112 51.4284 17.2792 51.2924 17.2792 51.2244C17.2792 51.0883 17.2792 51.0203 17.2112 50.8842C17.1431 50.7482 17.0071 50.6121 16.871 50.408C16.735 50.2039 16.5309 50.0679 16.3948 49.9318C16.2588 49.7958 16.1227 49.5917 16.0547 49.4557C15.9867 49.2516 15.9187 49.1155 15.9187 48.9114C15.9187 48.7074 15.9867 48.5033 16.1227 48.2992C16.2588 48.0951 16.4629 47.959 16.6669 47.823C16.871 47.6869 17.1431 47.6869 17.3472 47.6869C17.6193 47.6869 17.8914 47.823 18.1635 48.0271C18.4356 48.2992 18.7078 48.5713 18.8438 48.9114Z" fill="#5E6738"/>
<path d="M17.2104 12.1768C17.3465 12.3129 17.4145 12.517 17.2785 12.7891C17.2104 13.0612 17.0063 13.3333 16.6662 13.6734C16.258 14.0816 15.8499 14.2857 15.5778 14.2857C15.2376 14.2857 14.8295 14.0816 14.1492 13.7415C13.537 13.4013 13.1288 13.3333 12.8567 13.6054C12.7887 13.6734 12.7206 13.7415 12.7887 13.8095C12.7887 13.8775 12.9247 14.0136 13.1288 14.2177C13.4009 14.4898 13.673 14.6938 13.741 14.7619C13.8771 14.8299 14.0132 14.8299 14.2172 14.8299C14.4213 14.7619 14.5574 14.8299 14.6254 14.966C14.7614 15.102 14.7615 15.3061 14.6934 15.5782C14.5574 15.7823 14.2853 16.1224 13.8771 16.5986C13.0608 17.4149 12.5165 17.619 12.2444 17.3469C12.1764 17.2789 12.1084 17.0748 12.1764 16.8707C12.2444 16.5986 12.0404 16.2585 11.4961 15.7823L10.5438 14.7619L10.1356 14.3537C9.79547 14.0136 9.52335 13.8095 9.3873 13.7415C9.25124 13.6734 9.11519 13.6734 8.91111 13.7415C8.70703 13.8095 8.57097 13.8095 8.50294 13.6734C8.23083 13.4013 8.36689 13.0612 8.84308 12.585C8.91111 12.517 9.04716 12.3809 9.25125 12.2449C9.45533 12.1088 9.59138 11.9728 9.6594 11.9047L10.8839 10.6122C11.3601 10.136 11.8363 9.86391 12.3125 9.79588C12.7887 9.72786 13.1968 9.86392 13.537 10.2041C13.8091 10.4762 13.9451 10.7483 13.9451 11.0204C13.9451 11.2925 13.9451 11.5646 13.8771 11.8367C13.9451 11.9047 14.0812 11.8367 14.3533 11.7687C14.5574 11.6326 14.8295 11.6326 15.1016 11.7687C15.3737 11.8367 15.6458 11.9728 15.8499 12.1768C16.122 12.3809 16.258 12.4489 16.3261 12.4489C16.3941 12.4489 16.5302 12.4489 16.5982 12.3809C16.6662 12.3129 16.8023 12.3129 16.8703 12.3129C17.0744 12.1088 17.1424 12.1088 17.2104 12.1768ZM12.2444 12.8571C12.5846 12.517 12.5166 12.1768 12.1764 11.7687C11.7683 11.3605 11.4281 11.2925 11.156 11.5646C11.02 11.7006 11.02 11.9047 11.156 12.0408L11.9043 12.7891C11.9723 12.8571 12.0404 12.9251 12.1084 12.9251C12.1084 12.9932 12.1764 12.9251 12.2444 12.8571Z" fill="#5E6738"/>
<path d="M11.2243 19.2518C11.5644 19.4559 11.4964 20.0681 10.9522 21.0885C10.408 22.0409 9.99979 22.4491 9.65966 22.245C9.5236 22.177 9.45558 22.0409 9.45558 21.8368C9.45558 21.6327 9.45558 21.4967 9.38755 21.4287C9.31952 21.3606 9.2515 21.2926 9.11545 21.1565L8.97938 21.0885L8.57123 20.8844L6.46238 19.728C6.19027 19.5919 5.98619 19.5239 5.91816 19.5239C5.85013 19.5239 5.71408 19.5919 5.51 19.796C5.37395 20.0001 5.16987 20.0001 5.03381 19.9321C4.76171 19.796 4.7617 19.5239 4.96578 19.1157L5.23789 18.6395L6.32633 16.3266C6.66646 15.7144 7.07462 15.3062 7.61884 15.1021C8.16306 14.898 8.63925 14.9661 9.18347 15.2382C9.72769 15.5103 10.0678 15.9865 10.1359 16.5307C10.2719 17.0749 10.1359 17.6872 9.79572 18.2994C9.72769 18.3674 9.65966 18.5035 9.59164 18.7076C9.45558 18.8436 9.45558 18.9797 9.38755 18.9797C9.31952 19.0477 9.38756 19.1157 9.45558 19.1838L10.1359 19.5239C10.2719 19.5919 10.3399 19.5919 10.476 19.5919C10.544 19.5919 10.6801 19.5239 10.8161 19.4559C10.9522 19.1838 11.0882 19.1838 11.2243 19.2518ZM8.63925 18.1634C8.7753 17.9593 8.77531 17.6872 8.70728 17.4831C8.63925 17.279 8.43517 17.0749 8.16306 16.9389C7.89095 16.8028 7.61885 16.7348 7.41477 16.8028C7.14266 16.8708 7.0066 17.0069 6.87055 17.279C6.73449 17.4831 6.73449 17.6191 6.87055 17.6872L8.23109 18.4355C8.29912 18.5035 8.43517 18.5035 8.43517 18.4355C8.5032 18.3674 8.57122 18.2994 8.63925 18.1634Z" fill="#5E6738"/>
<path d="M52.5167 23.8096C52.5167 23.8776 52.5167 23.9456 52.5167 24.0136C52.5167 24.0817 52.4487 24.1497 52.3807 24.2858C52.3126 24.3538 52.2446 24.4218 52.0405 24.4218C51.9045 24.4218 51.7684 24.4218 51.6323 24.3538C51.4963 24.2857 51.4283 24.2177 51.3602 24.0817L50.816 24.6259C50.748 24.6939 50.68 24.7619 50.6119 24.83C50.5439 24.898 50.5439 24.966 50.4759 24.966V25.034C50.4759 25.034 50.4759 25.1021 50.4759 25.1701H50.3398V24.966V24.898C50.3398 24.83 50.3398 24.83 50.3398 24.7619C50.3398 24.6939 50.3398 24.6939 50.3398 24.6259C50.3398 24.6259 50.3398 24.5579 50.4079 24.5579C50.4079 24.5579 50.4759 24.4898 50.5439 24.4218L51.2922 23.6735V23.4694V23.4014L50.5439 23.5374C50.4759 23.5374 50.4079 23.6055 50.4079 23.6055C50.4079 23.6735 50.4079 23.7415 50.4079 23.8096V23.8776H50.2718L50.2038 23.4694L50.1357 23.0613H50.2718V23.1293C50.2718 23.1973 50.3398 23.2653 50.3398 23.3334C50.4079 23.3334 50.4759 23.4014 50.5439 23.3334L52.1766 23.0613C52.2446 23.0613 52.3126 22.9932 52.3126 22.9932C52.3126 22.9252 52.3126 22.8572 52.3126 22.7892V22.7211H52.4487C52.4487 22.8572 52.4487 22.9252 52.4487 22.9932L52.5167 23.4014V23.8096ZM52.2446 23.9456C52.3126 23.8096 52.3126 23.6735 52.3126 23.5374V23.4014H52.1085L51.9045 23.4694L51.3602 23.5374V23.6735C51.3602 23.8096 51.4283 23.9456 51.5643 24.0817C51.7004 24.1497 51.7684 24.2177 51.9725 24.1497C52.1085 24.1497 52.1766 24.0817 52.2446 23.9456Z" fill="#5E6738"/>
<path d="M51.2925 25.7143C50.8843 25.7143 50.5442 25.5782 50.2721 25.3741C49.8639 25.034 49.5918 24.5578 49.5918 24.0136C49.5918 23.0612 50.3401 22.3129 51.2925 22.3129C51.7006 22.3129 52.1088 22.449 52.4489 22.7891C52.7891 23.1293 52.9932 23.5374 52.9932 24.0816C52.9932 24.966 52.2449 25.7143 51.2925 25.7143ZM51.2925 22.517C50.4762 22.517 49.7959 23.1973 49.7959 24.0136C49.7959 24.4898 50 24.966 50.4081 25.2381C50.6802 25.4422 50.9523 25.5102 51.2925 25.5102C52.1088 25.5102 52.7891 24.8299 52.7891 24.0136C52.7891 23.6054 52.585 23.1973 52.3129 22.9252C52.0408 22.6531 51.7006 22.517 51.2925 22.517Z" fill="#5E6738"/>
<path d="M29.932 60C18.5034 60 7.89116 53.3333 2.92517 42.9932C0.952383 38.9116 0 34.5578 0 30C0 14.4218 11.7007 1.56462 27.2109 0.136052C28.0952 0.0680251 29.0476 0 29.932 0C41.3605 0 51.9728 6.66667 56.9388 17.0068C58.9116 21.0884 59.864 25.4422 59.864 30C59.932 46.5306 46.4626 60 29.932 60ZM29.932 0.952377C29.0476 0.952377 28.1633 1.0204 27.2789 1.08843C12.2449 2.44897 0.884356 14.898 0.884356 30C0.884356 34.4218 1.83673 38.6395 3.7415 42.585C8.57143 52.585 18.8435 59.0476 29.932 59.0476C45.9184 59.0476 58.9796 45.9864 58.9796 30C58.9796 25.5782 58.0272 21.3605 56.1225 17.415C51.2925 7.41496 41.0204 0.952377 29.932 0.952377Z" fill="#5E6738"/>
</svg>
