<svg width="75" height="57" viewBox="0 0 75 57" fill="none" xmlns="http://www.w3.org/2000/svg">
<path fill-rule="evenodd" clip-rule="evenodd" d="M73.3327 56.5H42.666C41.9327 56.5 41.3327 55.9 41.3327 55.1667V24.5C41.3327 11.2733 52.0927 0.5 65.3327 0.5H73.3327C74.066 0.5 74.666 1.1 74.666 1.83333V8.5C74.666 9.23333 74.066 9.83333 73.3327 9.83333H67.9993C61.386 9.83333 55.9993 15.22 55.9993 21.8333V23.1667H73.3327C74.066 23.1667 74.666 23.7667 74.666 24.5V55.1667C74.666 55.9 74.066 56.5 73.3327 56.5ZM31.9994 56.5H1.33269C0.59935 56.5 -0.000648499 55.9 -0.000648499 55.1667V24.5C-0.000648499 11.2733 10.7593 0.5 23.9994 0.5H31.9994C32.7327 0.5 33.3327 1.1 33.3327 1.83333V8.5C33.3327 9.23333 32.7327 9.83333 31.9994 9.83333H26.666C20.0527 9.83333 14.666 15.22 14.666 21.8333V23.1667H31.9994C32.7327 23.1667 33.3327 23.7667 33.3327 24.5V55.1667C33.3327 55.9 32.7327 56.5 31.9994 56.5Z" fill="#F1F1EF"/>
</svg>
