<svg width="40" height="40" viewBox="0 0 40 40" fill="none" xmlns="http://www.w3.org/2000/svg">
<path d="M16.8716 16.5793L21.9894 23.4207H23.1482L18.0305 16.5793H16.8716Z" fill="black"/>
<path d="M20 13C16.134 13 13 16.134 13 20C13 23.866 16.134 27 20 27C23.866 27 27 23.866 27 20C27 16.134 23.866 13 20 13ZM21.7161 23.9673L19.3862 20.852L16.5025 23.9673H15.7613L19.055 20.4091L15.782 16.0327H18.3046L20.4503 18.9018L23.106 16.0327H23.8472L20.7815 19.3448L24.2387 23.9673H21.7161Z" fill="black"/>
<circle opacity="0.2" cx="20" cy="20" r="19.5" stroke="#5E6738" stroke-dasharray="2 2"/>
</svg>
